<?xml version="1.0" standalone="no"?>
<!DOCTYPE svg PUBLIC "-//W3C//DTD SVG 20010904//EN"
 "http://www.w3.org/TR/2001/REC-SVG-20010904/DTD/svg10.dtd">
<svg version="1.0" xmlns="http://www.w3.org/2000/svg"
 width="700.000000pt" height="700.000000pt" viewBox="0 0 700.000000 700.000000"
 preserveAspectRatio="xMidYMid meet">
<metadata>
Created by potrace 1.14, written by Peter Selinger 2001-2017
</metadata>
<g transform="translate(0.000000,700.000000) scale(0.100000,-0.100000)"
fill="#000000" stroke="none">
<path d="M1331 4303 c-28 -109 -54 -208 -57 -220 -6 -23 -9 -23 -169 -23
l-164 0 -15 -52 c-8 -29 -31 -116 -51 -192 -20 -77 -39 -145 -42 -153 -4 -10
26 -13 162 -13 154 0 166 -1 161 -17 -9 -30 -34 -126 -46 -170 l-11 -43 -166
-2 -166 -3 -53 -202 -52 -203 165 0 c152 0 164 -1 159 -17 -3 -10 -28 -106
-56 -213 -28 -107 -53 -201 -55 -207 -3 -10 44 -13 214 -13 l218 0 32 123 c18
67 45 167 59 222 l28 100 147 3 c81 1 147 0 147 -4 0 -4 -25 -101 -55 -217
-30 -115 -55 -214 -55 -218 0 -5 97 -9 215 -9 l214 0 12 43 c6 23 33 123 59
222 l47 180 176 3 176 2 12 43 c6 23 31 115 54 205 l43 162 -174 0 c-96 0
-174 3 -174 8 0 4 13 54 28 112 l29 105 178 5 178 5 52 203 53 202 -174 0
c-96 0 -174 3 -174 8 0 4 25 99 55 212 30 113 55 208 55 213 0 4 -97 6 -217 5
l-216 -3 -57 -215 -57 -215 -151 -3 c-122 -2 -151 0 -146 11 2 7 29 106 58
220 l54 207 -218 0 -217 0 -52 -197z m559 -660 c0 -5 -13 -55 -29 -113 l-28
-105 -147 -3 c-104 -2 -146 1 -146 9 0 6 12 58 27 115 l27 104 148 0 c81 0
148 -3 148 -7z"/>
<path d="M3818 4345 c-388 -74 -677 -366 -738 -749 -19 -118 -8 -311 24 -419
97 -326 356 -563 691 -632 100 -20 284 -21 385 -1 427 84 727 438 733 868 1
57 -2 101 -9 108 -7 7 -167 9 -510 8 l-499 -3 0 -175 0 -175 263 -3 263 -2
-33 -46 c-87 -122 -231 -189 -403 -186 -141 2 -251 48 -343 146 -210 222 -173
613 73 781 74 50 148 75 245 82 190 14 357 -76 450 -241 l32 -56 219 0 c252 0
235 -10 195 108 -81 238 -267 436 -496 528 -161 66 -381 89 -542 59z"/>
<path d="M5170 3445 l0 -885 215 0 215 0 0 335 0 335 365 0 365 0 0 205 0 205
-365 0 -365 0 0 140 0 140 395 0 395 0 -2 203 -3 202 -607 3 -608 2 0 -885z"/>
</g>
</svg>
